HIERARCHY
ROOT Hips
{
    OFFSET 0.000000 0.000000 0.000000
    CHANNELS 6 Xposition Yposition Zposition Zrotation Xrotation Yrotation
    JOINT Spine
    {
        OFFSET -0.000000 7.933882 0.000000
        CHANNELS 3 Zrotation Xrotation Yrotation
        JOINT Spine1
        {
            OFFSET -0.000000 22.729401 0.000000
            CHANNELS 3 Zrotation Xrotation Yrotation
            JOINT Neck
            {
                OFFSET -0.000000 22.636055 2.057823
                CHANNELS 3 Zrotation Xrotation Yrotation
                JOINT Head
                {
                    OFFSET -0.000000 13.545651 -1.935093
                    CHANNELS 3 Zrotation Xrotation Yrotation
                    End Site
                    {
                        OFFSET -0.000000 24.188663 0.000000
                    }
                }
            }
            JOINT LeftShoulder
            {
                OFFSET 3.842306 20.701504 -0.286599
                CHANNELS 3 Zrotation Xrotation Yrotation
                JOINT LeftArm
                {
                    OFFSET 11.351986 0.000000 0.000000
                    CHANNELS 3 Zrotation Xrotation Yrotation
                    JOINT LeftForeArm
                    {
                        OFFSET 28.321957 0.000000 0.000000
                        CHANNELS 3 Zrotation Xrotation Yrotation
                        JOINT LeftHand
                        {
                            OFFSET 27.250586 0.000000 0.000000
                            CHANNELS 3 Zrotation Xrotation Yrotation
                            End Site
                            {
                                OFFSET 14.513199 0.000000 0.000000
                            }
                        }
                    }
                }
            }
            JOINT RightShoulder
            {
                OFFSET -3.895451 20.701504 -0.286599
                CHANNELS 3 Zrotation Xrotation Yrotation
                JOINT RightArm
                {
                    OFFSET -11.351986 0.000000 0.000000
                    CHANNELS 3 Zrotation Xrotation Yrotation
                    JOINT RightForeArm
                    {
                        OFFSET -28.321957 0.000000 0.000000
                        CHANNELS 3 Zrotation Xrotation Yrotation
                        JOINT RightHand
                        {
                            OFFSET -27.250586 0.000000 0.000000
                            CHANNELS 3 Zrotation Xrotation Yrotation
                            End Site
                            {
                                OFFSET -14.513199 0.000000 0.000000
                            }
                        }
                    }
                }
            }
        }
    }
    JOINT LeftUpLeg
    {
        OFFSET 9.675466 0.000000 0.000000
        CHANNELS 3 Zrotation Xrotation Yrotation
        JOINT LeftLeg
        {
            OFFSET -0.000000 -34.562881 0.000000
            CHANNELS 3 Zrotation Xrotation Yrotation
            JOINT LeftFoot
            {
                OFFSET -0.000000 -42.809692 0.000000
                CHANNELS 3 Zrotation Xrotation Yrotation
                JOINT LeftToeBase
                {
                    OFFSET -0.000000 -6.289052 14.513199
                    CHANNELS 3 Zrotation Xrotation Yrotation
                    End Site
                    {
                        OFFSET -0.000000 0.000000 3.870186
                    }
                }
            }
        }
    }
    JOINT RightUpLeg
    {
        OFFSET -9.675466 0.000000 0.000000
        CHANNELS 3 Zrotation Xrotation Yrotation
        JOINT RightLeg
        {
            OFFSET -0.000000 -34.562881 0.000000
            CHANNELS 3 Zrotation Xrotation Yrotation
            JOINT RightFoot
            {
                OFFSET -0.000000 -42.809692 0.000000
                CHANNELS 3 Zrotation Xrotation Yrotation
                JOINT RightToeBase
                {
                    OFFSET -0.000000 -6.289052 14.513199
                    CHANNELS 3 Zrotation Xrotation Yrotation
                    End Site
                    {
                        OFFSET -0.000000 0.000000 3.870186
                    }
                }
            }
        }
    }
}
MOTION
Frames:    12
Frame Time:    0.010000
-2.535469    84.150322    -9.144821    2.325496    -13.343355    8.119936    -5.503138    2.893310    -2.889670    14.208600    -9.338080    -1.862393    -9.231179    19.100889    1.693588    -0.002494    20.613897    1.513922    18.028160    -25.364058    -11.394162    3.838594    9.711981    -31.948488    29.832432    -19.073902    -7.186718    12.586929    -17.200300    0.494791    -18.236532    0.527929    7.999381    -61.651520    23.702902    32.532833    -29.363789    -36.938698    -8.009719    -7.788155    -38.298561    -5.656367    11.792471    43.770142    -20.228823    0.538966    -7.039896    -6.737013    -0.990331    -5.009251    20.374828    0.000000    0.000000    0.000000    -17.842056    -4.635772    -2.702985    13.432976    31.005816    -4.753143    8.033741    -7.503621    -4.348555    0.000000    0.000000    0.000000    
-2.487674    84.137947    -9.131924    2.354519    -13.321982    8.116169    -5.490126    2.878566    -2.881388    14.188022    -9.305006    -1.858917    -9.239938    19.039335    1.682106    0.027216    20.612604    1.506013    18.079998    -25.334530    -11.346111    3.818223    9.646844    -31.985247    29.797874    -19.161005    -7.175354    12.946427    -17.264723    0.745972    -26.253130    0.063183    11.700156    -48.717289    21.891071    28.459444    -29.744598    -34.283993    -6.271860    -7.055327    -35.391552    -5.152899    11.716890    43.776840    -20.101650    0.524872    -7.047509    -6.829104    -0.945154    -5.017375    20.357359    0.000000    0.000000    0.000000    -17.919287    -4.683904    -2.813271    13.401978    31.100183    -4.678582    8.043443    -7.525601    -4.326039    0.000000    0.000000    0.000000    
-2.441956    84.136269    -9.201930    2.349598    -13.192972    8.059652    -5.398387    2.655518    -2.920595    14.036834    -8.959578    -1.940590    -9.114674    18.754450    1.730862    -0.162680    20.522381    1.592606    17.964357    -25.254393    -11.095061    4.125525    9.918381    -31.890236    30.310942    -18.975649    -7.496717    11.239363    -16.960258    0.865703    -30.328220    -0.306012    13.663497    -41.270878    19.476410    25.608753    -30.392962    -32.395332    -4.540859    -7.242637    -33.129692    -5.696022    11.613065    43.565628    -19.997751    0.470858    -7.062002    -6.752944    -0.918850    -5.127605    20.307617    0.000000    0.000000    0.000000    -17.906975    -4.676559    -2.862808    13.370120    31.005808    -4.580822    8.011975    -7.681723    -4.433714    0.000000    0.000000    0.000000    
-1.999133    85.946533    -23.844475    0.169484    8.220395    -1.363534    3.858745    -20.433960    1.033489    -7.899004    11.105533    1.106918    8.980186    5.243776    2.986639    -6.845233    1.007457    1.274293    2.391126    14.952527    4.383560    -46.068104    65.049118    -27.631191    56.828632    -36.175461    -44.035286    -39.641449    -12.432036    -2.322552    -1.477059    14.532317    0.815591    56.610435    73.068146    8.053948    -45.003105    -46.242805    59.875149    91.084328    -8.559478    15.323984    6.891956    -1.947709    -3.503899    -3.408343    2.604986    1.548873    -0.379681    -9.690933    17.560410    0.000000    0.000000    0.000000    -3.461402    -0.913107    -2.873727    4.314853    -0.981738    -3.304245    2.146696    -9.189683    -13.892277    0.000000    0.000000    0.000000    
-2.151125    85.962555    -23.877028    0.280504    8.303842    -1.053594    3.699405    -20.471430    0.975184    -7.795633    11.188763    1.071704    8.966487    5.272134    3.023380    -6.995719    0.879069    1.288316    2.514425    15.018073    4.346334    -46.230232    65.059761    -27.887106    56.945770    -36.199444    -43.989143    -40.081730    -12.361510    -2.481607    -1.240729    14.508107    0.189868    57.755192    72.461227    7.930706    -45.765869    -46.660954    59.013298    89.608078    -10.172269    14.685515    6.965309    -2.909045    -3.702736    -3.700436    3.920646    1.925573    -0.381522    -9.924718    17.209074    0.000000    0.000000    0.000000    -3.506796    -0.676239    -2.768115    4.376145    -1.471994    -3.467877    2.138088    -9.110847    -14.061632    0.000000    0.000000    0.000000    
-2.314054    85.967979    -23.914425    0.366438    8.313334    -0.717191    3.591975    -20.550236    0.905095    -7.863747    11.597383    1.053602    9.087890    4.936576    3.031236    -7.105180    0.760206    1.234336    2.894557    15.000696    4.453794    -46.058521    65.237389    -28.671083    56.954182    -36.326344    -44.027565    -39.606247    -12.600919    -2.186521    -0.977449    14.391190    -0.388084    58.244789    71.488670    8.546226    -45.226707    -47.073063    59.116913    87.196495    -12.752004    13.568174    7.072143    -3.911570    -3.789813    -3.971984    5.422458    1.879069    -0.402648    -10.209215    17.105700    0.000000    0.000000    0.000000    -3.466041    -0.394966    -2.765898    4.338226    -1.919181    -3.593808    2.045809    -9.027409    -14.188304    0.000000    0.000000    0.000000    
-2.428317    85.975777    -23.946743    0.470357    8.273285    -0.341142    3.567842    -20.446442    0.770707    -7.961937    11.670637    0.942005    9.382653    5.222315    3.155502    -7.775779    0.370696    1.239294    2.894518    15.018399    4.533391    -46.282848    65.254013    -28.675354    56.690804    -36.495918    -44.318714    -39.238224    -12.860044    -1.921302    -0.720555    14.497959    -0.624768    59.307892    70.746666    8.642883    -45.639336    -47.571194    58.181297    85.115204    -14.693542    12.997936    7.117149    -4.914590    -3.912602    -4.241556    6.980242    1.883880    -0.419645    -10.461233    16.938026    0.000000    0.000000    0.000000    -3.532811    -0.084050    -2.767159    4.391885    -2.297897    -3.656722    1.957935    -8.994297    -14.421507    0.000000    0.000000    0.000000    
-2.565879    85.979668    -24.061485    0.496876    8.343760    -0.113712    3.438828    -20.436241    0.790222    -7.632182    11.929238    0.968612    9.441914    5.093701    3.183184    -8.268790    0.099335    1.162639    2.901582    14.976510    4.279840    -46.542641    65.089684    -28.850113    56.462742    -36.584637    -44.478245    -39.003628    -13.018920    -1.844200    -0.646738    14.475587    -1.164019    59.849041    70.206772    9.309937    -46.829315    -47.878746    56.421345    83.617836    -15.348451    13.338588    7.318476    -6.149308    -3.775589    -4.592602    8.724499    1.781607    -0.469076    -10.789382    16.787441    0.000000    0.000000    0.000000    -3.517745    -0.069271    -2.474943    4.463057    -2.531306    -3.931634    1.835888    -8.936529    -14.617540    0.000000    0.000000    0.000000    
-2.720955    85.976913    -24.118385    0.516591    8.299838    0.066127    3.382882    -20.188690    0.831621    -7.436318    11.833623    1.001100    9.415912    5.263982    3.145054    -8.525723    -0.240890    1.078605    2.882510    15.084766    4.123523    -46.647366    65.249748    -28.990700    56.732735    -36.645206    -44.219856    -39.342155    -13.026590    -2.075668    -0.510213    14.712341    -1.406940    60.653130    68.971672    9.893632    -48.038147    -47.508327    54.615826    82.178848    -14.936715    13.838737    7.450540    -7.130711    -3.108343    -4.645154    10.343970    1.114964    -0.427809    -11.036859    16.594572    0.000000    0.000000    0.000000    -3.427004    0.081921    -2.238886    4.430585    -2.739219    -4.123748    1.734458    -8.925681    -14.769638    0.000000    0.000000    0.000000    
-2.816077    85.977928    -24.183283    0.558178    8.251978    0.302502    3.511389    -20.071928    0.811877    -7.489366    12.064834    0.982974    9.485297    5.500549    3.257608    -9.024302    -1.050064    1.073940    2.897798    15.190250    4.176705    -46.323902    65.332130    -29.573696    57.076748    -36.763916    -43.888546    -40.024994    -13.028247    -2.522161    -0.436251    14.829404    -1.516922    61.325485    68.402809    10.589254    -50.600910    -47.186501    51.740868    80.877365    -14.170076    14.636352    7.598606    -8.212040    -2.767453    -4.925793    12.109737    0.777692    -0.482273    -11.279698    16.459776    0.000000    0.000000    0.000000    -3.450979    0.219930    -2.084425    4.491305    -2.913321    -4.327540    1.631204    -8.903275    -14.901453    0.000000    0.000000    0.000000    
-2.923497    85.967674    -24.283432    0.631397    8.231142    0.459894    3.804629    -19.662294    0.551188    -7.694462    11.735848    0.683713    9.072489    5.948125    3.617917    -9.239788    -1.754662    1.438902    2.306417    15.035031    5.067545    -46.010475    65.769928    -29.383524    56.948383    -37.009087    -44.083794    -39.568573    -13.288369    -2.499167    -0.795021    15.343276    -0.740998    61.895542    67.398582    11.921916    -52.616356    -46.519653    49.238159    78.975571    -13.805161    14.807616    7.792466    -9.324648    -2.197175    -5.230015    13.835335    0.383489    -0.546249    -11.397486    16.218653    0.000000    0.000000    0.000000    -3.463458    0.221474    -1.945737    4.495891    -2.974407    -4.561021    1.492952    -8.939314    -14.925022    0.000000    0.000000    0.000000    
-3.010154    85.954193    -24.380463    0.714185    8.189288    0.585860    3.899839    -19.606754    0.599432    -7.737153    12.197798    0.752675    8.970661    5.838268    3.672215    -9.361425    -2.335524    1.430543    2.475636    14.894064    5.155907    -45.691174    66.040428    -30.002863    57.335640    -37.116680    -43.804241    -40.207783    -13.276283    -2.784645    -0.704032    15.301172    -0.848521    61.934052    67.519478    13.019109    -55.116901    -46.386856    46.408245    76.488388    -14.424295    14.870415    7.985348    -10.334436    -1.571755    -5.519736    15.504375    -0.387247    -0.542746    -11.536540    16.292749    0.000000    0.000000    0.000000    -3.502041    0.228197    -1.867153    4.513948    -3.003223    -4.762048    1.253601    -8.997131    -14.888555    0.000000    0.000000    0.000000    
